<svg width="244" height="49" viewBox="0 0 244 49" fill="none" xmlns="http://www.w3.org/2000/svg">
<path d="M22.5959 47.3649C24.9937 40.6179 32.6667 25.7744 44.1761 20.3768C44.2627 18.7884 43.924 16.5532 42.9863 14.1777M22.5959 1.63513C22.5959 2.23487 22.6432 32.2396 22.6669 47.167M22.5959 1.63513C26.1112 1.63513 29.1062 2.19586 31.6437 3.13447M22.5959 1.63513C19.4969 1.94518 16.8162 2.54165 14.5033 3.34477M22.6669 47.167C22.9666 41.6695 9.10823 22.6258 1.01563 20.3768C0.924848 18.7117 1.21903 16.5008 2.17305 14.1777M22.6669 47.167C23.9481 40.6014 29.8056 24.8115 42.9863 14.1777M22.6669 47.167C23.2427 40.2361 27.2716 22.6258 38.7811 7.63247M22.6669 47.167C23.28 38.4869 25.9337 17.5281 31.6437 3.13447M22.6669 47.167C22.0438 38.1273 19.5387 16.7072 14.5033 3.34477M22.6669 47.167C22.0733 40.2361 18.0899 22.6258 6.90464 7.63247M22.6669 47.167C21.017 39.6018 14.6084 22.4126 2.17305 14.1777M42.9863 14.1777C41.3465 10.0233 37.875 5.43945 31.6437 3.13447M14.5033 3.34477C11.3165 4.4513 8.82775 5.9501 6.90464 7.63247M6.90464 7.63247C4.5771 9.66865 3.07813 11.9737 2.17305 14.1777" stroke="#FFDE9D" stroke-width="1.90541" stroke-linecap="round"/>
<path d="M70.056 23.3188C70.056 24.4005 69.8774 25.4277 69.5201 26.4002C69.1629 27.3728 68.6567 28.2312 68.0018 28.9755C67.3567 29.7099 66.5727 30.2954 65.6498 30.7321C64.7368 31.1588 63.7146 31.3721 62.5833 31.3721C61.4519 31.3721 60.4248 31.1588 59.5019 30.7321C58.5889 30.3053 57.8049 29.7297 57.1499 29.0053C56.5048 28.2709 56.0086 27.4174 55.6613 26.4449C55.3139 25.4723 55.1403 24.4402 55.1403 23.3486C55.1403 22.247 55.3239 21.2199 55.6911 20.2672C56.0682 19.3046 56.5941 18.471 57.269 17.7664C57.9438 17.0518 58.7476 16.4911 59.6805 16.0842C60.6134 15.6674 61.6405 15.459 62.7619 15.459C63.8635 15.459 64.8608 15.6724 65.754 16.0991C66.6471 16.5159 67.4113 17.0866 68.0464 17.811C68.6915 18.5255 69.1877 19.3592 69.535 20.3119C69.8824 21.2646 70.056 22.2669 70.056 23.3188ZM67.4956 23.4677C67.4956 22.912 67.4659 22.3463 67.4063 21.7707C67.3567 21.1951 67.2624 20.6394 67.1235 20.1035C66.9846 19.5676 66.796 19.0664 66.5578 18.6C66.3196 18.1336 66.017 17.7267 65.6498 17.3793C65.2826 17.032 64.841 16.7591 64.3249 16.5606C63.8188 16.3522 63.2184 16.248 62.5237 16.248C61.8886 16.248 61.3279 16.3522 60.8416 16.5606C60.3653 16.7591 59.9484 17.032 59.5912 17.3793C59.2339 17.7267 58.9362 18.1336 58.698 18.6C58.4598 19.0664 58.2663 19.5626 58.1175 20.0886C57.9785 20.6046 57.8793 21.1405 57.8198 21.6963C57.7602 22.2421 57.7304 22.773 57.7304 23.2891C57.7304 23.7952 57.7602 24.3261 57.8198 24.8819C57.8793 25.4376 57.9835 25.9834 58.1324 26.5193C58.2812 27.0552 58.4747 27.5663 58.7129 28.0526C58.9511 28.5389 59.2488 28.9656 59.6061 29.3328C59.9633 29.7 60.3851 29.9927 60.8714 30.211C61.3577 30.4294 61.9184 30.5385 62.5535 30.5385C63.2184 30.5385 63.799 30.4393 64.2952 30.2408C64.8013 30.0423 65.2379 29.7744 65.6051 29.437C65.9723 29.0896 66.275 28.6877 66.5132 28.2312C66.7613 27.7648 66.9548 27.2735 67.0937 26.7575C67.2426 26.2315 67.3468 25.6907 67.4063 25.1349C67.4659 24.5693 67.4956 24.0135 67.4956 23.4677ZM85.4481 27.4274C84.7634 28.6579 83.9 29.6255 82.858 30.3301C81.8259 31.0248 80.5953 31.3721 79.1662 31.3721C78.0349 31.3721 77.0127 31.1737 76.0997 30.7767C75.1867 30.3798 74.4077 29.8339 73.7626 29.1393C73.1176 28.4446 72.6214 27.6258 72.274 26.6831C71.9267 25.7403 71.753 24.7181 71.753 23.6166C71.753 22.4852 71.9366 21.4283 72.3038 20.4458C72.6809 19.4534 73.2069 18.5901 73.8817 17.8557C74.5665 17.1114 75.3802 16.5259 76.323 16.0991C77.2757 15.6724 78.3326 15.459 79.4937 15.459C79.8808 15.459 80.238 15.4888 80.5655 15.5484C80.9029 15.598 81.2255 15.6674 81.5331 15.7568C81.8507 15.8461 82.1633 15.9552 82.4709 16.0842C82.7786 16.2033 83.1011 16.3373 83.4385 16.4862C83.5874 16.4862 83.7164 16.4514 83.8256 16.382C83.9347 16.3125 84.024 16.2281 84.0935 16.1289C84.163 16.0297 84.2176 15.9205 84.2573 15.8014C84.3069 15.6724 84.3466 15.5583 84.3763 15.459H84.7783L85.1058 20.6096H84.7783C84.5897 19.9745 84.3466 19.3939 84.0488 18.8679C83.7611 18.332 83.4088 17.8706 82.9919 17.4835C82.5851 17.0965 82.1087 16.7938 81.5629 16.5755C81.0171 16.3572 80.3919 16.248 79.6873 16.248C78.9926 16.248 78.3773 16.3522 77.8414 16.5606C77.3154 16.7591 76.849 17.037 76.4421 17.3942C76.0452 17.7515 75.7077 18.1683 75.4299 18.6446C75.1619 19.121 74.9436 19.637 74.7749 20.1928C74.6161 20.7386 74.497 21.3092 74.4176 21.9047C74.3482 22.4902 74.3134 23.0707 74.3134 23.6463C74.3134 24.5494 74.4226 25.4078 74.6409 26.2216C74.8592 27.0354 75.1967 27.7499 75.6532 28.3652C76.1196 28.9805 76.7101 29.4667 77.4246 29.824C78.149 30.1813 79.0124 30.3599 80.0147 30.3599C80.6499 30.3599 81.2056 30.2855 81.682 30.1366C82.1683 29.9878 82.6049 29.7793 82.9919 29.5114C83.3889 29.2335 83.7561 28.9011 84.0935 28.514C84.4309 28.1171 84.7683 27.6755 85.1058 27.1892L85.4481 27.4274ZM98.4585 31H86.7581V30.5683C87.2344 30.5683 87.6116 30.5385 87.8894 30.479C88.1772 30.4194 88.3956 30.3103 88.5444 30.1515C88.6933 29.9828 88.7925 29.7545 88.8421 29.4667C88.8918 29.169 88.9166 28.787 88.9166 28.3205V18.4065C88.9166 17.9301 88.8967 17.548 88.857 17.2602C88.8173 16.9724 88.723 16.7492 88.5742 16.5904C88.4253 16.4316 88.207 16.3274 87.9192 16.2778C87.6314 16.2182 87.2444 16.1885 86.7581 16.1885V15.7865H98.4585L98.6371 19.1061H98.2203C98.0913 18.6198 97.9672 18.2179 97.8481 17.9003C97.739 17.5728 97.5852 17.3148 97.3867 17.1263C97.1981 16.9377 96.9351 16.8037 96.5977 16.7243C96.2702 16.645 95.8237 16.6053 95.258 16.6053H91.0601V22.6192H94.4095C94.8759 22.6192 95.2481 22.5894 95.5259 22.5299C95.8137 22.4604 96.042 22.3463 96.2107 22.1875C96.3893 22.0188 96.5183 21.7955 96.5977 21.5176C96.687 21.2298 96.7615 20.8626 96.821 20.4161H97.2378V25.7304H96.821C96.7615 25.2838 96.687 24.9166 96.5977 24.6288C96.5183 24.341 96.3943 24.1128 96.2256 23.944C96.0569 23.7654 95.8286 23.6414 95.5408 23.5719C95.263 23.5024 94.8858 23.4677 94.4095 23.4677H91.0601V28.4694C91.0601 28.7473 91.0651 28.9954 91.075 29.2137C91.0949 29.4221 91.1445 29.6007 91.2239 29.7496C91.3033 29.8885 91.4273 29.9977 91.596 30.0771C91.7747 30.1465 92.0228 30.1813 92.3403 30.1813H94.9007C95.5656 30.1813 96.1115 30.1267 96.5382 30.0175C96.9649 29.9084 97.3321 29.7347 97.6397 29.4965C97.9573 29.2583 98.2401 28.9507 98.4882 28.5736C98.7363 28.1865 99.0142 27.7251 99.3219 27.1892H99.7982L98.4585 31ZM110.62 31V30.5683C110.789 30.5683 110.963 30.5584 111.141 30.5385C111.32 30.5088 111.484 30.4591 111.633 30.3897C111.781 30.3202 111.905 30.2259 112.005 30.1068C112.104 29.9778 112.154 29.8091 112.154 29.6007C112.154 29.4022 112.094 29.1244 111.975 28.7671C111.856 28.4098 111.722 28.0427 111.573 27.6655C111.424 27.2884 111.275 26.9361 111.126 26.6086C110.978 26.2811 110.873 26.0479 110.814 25.909H104.919C104.879 25.9884 104.815 26.1224 104.725 26.3109C104.646 26.4895 104.552 26.698 104.443 26.9361C104.333 27.1644 104.224 27.4075 104.115 27.6655C104.006 27.9236 103.902 28.1766 103.803 28.4247C103.713 28.6728 103.639 28.9011 103.579 29.1095C103.52 29.3179 103.49 29.4816 103.49 29.6007C103.49 29.7992 103.554 29.9629 103.683 30.092C103.812 30.211 103.971 30.3053 104.16 30.3748C104.348 30.4443 104.542 30.4939 104.74 30.5236C104.939 30.5435 105.113 30.5584 105.261 30.5683V31H100.468V30.5683C100.825 30.5584 101.133 30.474 101.391 30.3152C101.649 30.1565 101.872 29.953 102.061 29.7049C102.259 29.4568 102.428 29.1839 102.567 28.8862C102.706 28.5785 102.84 28.2759 102.969 27.9781L108.343 15.459H108.73L114.014 28.0675C114.163 28.4148 114.302 28.7373 114.431 29.0351C114.57 29.3228 114.734 29.5809 114.922 29.8091C115.111 30.0274 115.339 30.2061 115.607 30.345C115.875 30.474 116.217 30.5485 116.634 30.5683V31H110.62ZM107.911 18.8977L105.261 25.0903H110.501L107.911 18.8977ZM133.098 16.1885C132.622 16.1885 132.24 16.2182 131.952 16.2778C131.664 16.3373 131.441 16.4514 131.282 16.6201C131.133 16.7789 131.034 17.0022 130.984 17.29C130.945 17.5778 130.925 17.95 130.925 18.4065V31.2382H130.538L120.475 18.987V28.3503C120.475 28.8266 120.495 29.2087 120.534 29.4965C120.584 29.7843 120.683 30.0076 120.832 30.1664C120.981 30.3252 121.199 30.4343 121.487 30.4939C121.775 30.5435 122.157 30.5683 122.633 30.5683V31H117.334V30.5683C117.81 30.5683 118.187 30.5385 118.465 30.479C118.753 30.4194 118.971 30.3103 119.12 30.1515C119.269 29.9828 119.368 29.7545 119.418 29.4667C119.468 29.1789 119.492 28.8068 119.492 28.3503V17.7664C119.304 17.5083 119.125 17.2851 118.956 17.0965C118.798 16.898 118.624 16.7343 118.435 16.6053C118.257 16.4663 118.048 16.3621 117.81 16.2927C117.572 16.2232 117.279 16.1885 116.932 16.1885V15.7865H120.653L129.957 27.1892V18.4065C129.957 17.95 129.932 17.5778 129.883 17.29C129.833 17.0022 129.729 16.7789 129.57 16.6201C129.421 16.4514 129.203 16.3373 128.915 16.2778C128.637 16.2182 128.26 16.1885 127.784 16.1885V15.7865H133.098V16.1885ZM149.101 23.3188C149.101 24.4005 148.922 25.4277 148.565 26.4002C148.207 27.3728 147.701 28.2312 147.046 28.9755C146.401 29.7099 145.617 30.2954 144.694 30.7321C143.781 31.1588 142.759 31.3721 141.628 31.3721C140.496 31.3721 139.469 31.1588 138.546 30.7321C137.633 30.3053 136.849 29.7297 136.194 29.0053C135.549 28.2709 135.053 27.4174 134.706 26.4449C134.358 25.4723 134.185 24.4402 134.185 23.3486C134.185 22.247 134.368 21.2199 134.736 20.2672C135.113 19.3046 135.639 18.471 136.314 17.7664C136.988 17.0518 137.792 16.4911 138.725 16.0842C139.658 15.6674 140.685 15.459 141.806 15.459C142.908 15.459 143.905 15.6724 144.799 16.0991C145.692 16.5159 146.456 17.0866 147.091 17.811C147.736 18.5255 148.232 19.3592 148.58 20.3119C148.927 21.2646 149.101 22.2669 149.101 23.3188ZM146.54 23.4677C146.54 22.912 146.51 22.3463 146.451 21.7707C146.401 21.1951 146.307 20.6394 146.168 20.1035C146.029 19.5676 145.841 19.0664 145.602 18.6C145.364 18.1336 145.062 17.7267 144.694 17.3793C144.327 17.032 143.886 16.7591 143.369 16.5606C142.863 16.3522 142.263 16.248 141.568 16.248C140.933 16.248 140.372 16.3522 139.886 16.5606C139.41 16.7591 138.993 17.032 138.636 17.3793C138.278 17.7267 137.981 18.1336 137.743 18.6C137.504 19.0664 137.311 19.5626 137.162 20.0886C137.023 20.6046 136.924 21.1405 136.864 21.6963C136.805 22.2421 136.775 22.773 136.775 23.2891C136.775 23.7952 136.805 24.3261 136.864 24.8819C136.924 25.4376 137.028 25.9834 137.177 26.5193C137.326 27.0552 137.519 27.5663 137.757 28.0526C137.996 28.5389 138.293 28.9656 138.651 29.3328C139.008 29.7 139.43 29.9927 139.916 30.211C140.402 30.4294 140.963 30.5385 141.598 30.5385C142.263 30.5385 142.844 30.4393 143.34 30.2408C143.846 30.0423 144.282 29.7744 144.65 29.437C145.017 29.0896 145.32 28.6877 145.558 28.2312C145.806 27.7648 145.999 27.2735 146.138 26.7575C146.287 26.2315 146.391 25.6907 146.451 25.1349C146.51 24.5693 146.54 24.0135 146.54 23.4677ZM166.517 31V30.5683C166.994 30.5683 167.376 30.5385 167.663 30.479C167.961 30.4095 168.184 30.2954 168.333 30.1366C168.492 29.9679 168.596 29.7397 168.646 29.4519C168.695 29.1541 168.72 28.777 168.72 28.3205V23.6463H161.605V28.3205C161.605 28.787 161.63 29.169 161.679 29.4667C161.729 29.7545 161.833 29.9828 161.992 30.1515C162.151 30.3103 162.374 30.4194 162.662 30.479C162.959 30.5385 163.351 30.5683 163.838 30.5683V31H157.318V30.5683C157.804 30.5683 158.191 30.5385 158.479 30.479C158.767 30.4194 158.985 30.3103 159.134 30.1515C159.283 29.9828 159.377 29.7545 159.417 29.4667C159.456 29.169 159.476 28.787 159.476 28.3205V18.466C159.476 17.9996 159.451 17.6225 159.402 17.3347C159.362 17.037 159.268 16.8037 159.119 16.635C158.97 16.4663 158.752 16.3522 158.464 16.2927C158.176 16.2232 157.794 16.1885 157.318 16.1885V15.7865H163.838V16.1885C163.361 16.1885 162.979 16.2232 162.691 16.2927C162.404 16.3522 162.175 16.4663 162.007 16.635C161.848 16.8037 161.739 17.037 161.679 17.3347C161.63 17.6225 161.605 17.9996 161.605 18.466V22.8276H168.72V18.466C168.72 17.9996 168.695 17.6225 168.646 17.3347C168.596 17.037 168.492 16.8037 168.333 16.635C168.184 16.4663 167.961 16.3522 167.663 16.2927C167.376 16.2232 166.994 16.1885 166.517 16.1885V15.7865H173.037V16.1885C172.591 16.1885 172.223 16.2182 171.936 16.2778C171.658 16.3274 171.439 16.4316 171.281 16.5904C171.132 16.7392 171.028 16.9526 170.968 17.2305C170.909 17.4984 170.879 17.8507 170.879 18.2874V28.4694C170.879 28.9259 170.909 29.2931 170.968 29.5709C171.028 29.8488 171.132 30.0622 171.281 30.211C171.439 30.3599 171.658 30.4591 171.936 30.5088C172.223 30.5485 172.591 30.5683 173.037 30.5683V31H166.517ZM189.203 23.3188C189.203 24.4005 189.025 25.4277 188.668 26.4002C188.31 27.3728 187.804 28.2312 187.149 28.9755C186.504 29.7099 185.72 30.2954 184.797 30.7321C183.884 31.1588 182.862 31.3721 181.731 31.3721C180.599 31.3721 179.572 31.1588 178.649 30.7321C177.736 30.3053 176.952 29.7297 176.297 29.0053C175.652 28.2709 175.156 27.4174 174.809 26.4449C174.461 25.4723 174.288 24.4402 174.288 23.3486C174.288 22.247 174.471 21.2199 174.838 20.2672C175.216 19.3046 175.742 18.471 176.416 17.7664C177.091 17.0518 177.895 16.4911 178.828 16.0842C179.761 15.6674 180.788 15.459 181.909 15.459C183.011 15.459 184.008 15.6724 184.901 16.0991C185.795 16.5159 186.559 17.0866 187.194 17.811C187.839 18.5255 188.335 19.3592 188.682 20.3119C189.03 21.2646 189.203 22.2669 189.203 23.3188ZM186.643 23.4677C186.643 22.912 186.613 22.3463 186.554 21.7707C186.504 21.1951 186.41 20.6394 186.271 20.1035C186.132 19.5676 185.943 19.0664 185.705 18.6C185.467 18.1336 185.164 17.7267 184.797 17.3793C184.43 17.032 183.988 16.7591 183.472 16.5606C182.966 16.3522 182.366 16.248 181.671 16.248C181.036 16.248 180.475 16.3522 179.989 16.5606C179.513 16.7591 179.096 17.032 178.739 17.3793C178.381 17.7267 178.084 18.1336 177.845 18.6C177.607 19.0664 177.414 19.5626 177.265 20.0886C177.126 20.6046 177.027 21.1405 176.967 21.6963C176.908 22.2421 176.878 22.773 176.878 23.2891C176.878 23.7952 176.908 24.3261 176.967 24.8819C177.027 25.4376 177.131 25.9834 177.28 26.5193C177.429 27.0552 177.622 27.5663 177.86 28.0526C178.098 28.5389 178.396 28.9656 178.753 29.3328C179.111 29.7 179.532 29.9927 180.019 30.211C180.505 30.4294 181.066 30.5385 181.701 30.5385C182.366 30.5385 182.946 30.4393 183.443 30.2408C183.949 30.0423 184.385 29.7744 184.752 29.437C185.12 29.0896 185.422 28.6877 185.661 28.2312C185.909 27.7648 186.102 27.2735 186.241 26.7575C186.39 26.2315 186.494 25.6907 186.554 25.1349C186.613 24.5693 186.643 24.0135 186.643 23.4677ZM203.062 19.3592C202.973 18.4958 202.71 17.8458 202.273 17.4091C201.837 16.9625 201.167 16.7392 200.264 16.7392H198.135V28.3503C198.135 28.8167 198.155 29.1938 198.195 29.4816C198.234 29.7694 198.329 29.9977 198.477 30.1664C198.626 30.3252 198.84 30.4343 199.117 30.4939C199.405 30.5435 199.787 30.5683 200.264 30.5683V31H193.833V30.5683C194.309 30.5683 194.686 30.5385 194.964 30.479C195.242 30.4194 195.456 30.3103 195.604 30.1515C195.753 29.9828 195.848 29.7545 195.887 29.4667C195.937 29.1789 195.962 28.8068 195.962 28.3503V16.7392H194.131C193.654 16.7392 193.238 16.7839 192.88 16.8732C192.523 16.9526 192.22 17.0915 191.972 17.29C191.734 17.4885 191.545 17.7564 191.407 18.0939C191.278 18.4313 191.193 18.853 191.153 19.3592H190.632L190.781 15.7865H203.405L203.553 19.3592H203.062ZM216.266 31H204.566V30.5683C205.042 30.5683 205.419 30.5385 205.697 30.479C205.985 30.4194 206.203 30.3103 206.352 30.1515C206.501 29.9828 206.6 29.7545 206.65 29.4667C206.699 29.169 206.724 28.787 206.724 28.3205V18.4065C206.724 17.9301 206.704 17.548 206.665 17.2602C206.625 16.9724 206.531 16.7492 206.382 16.5904C206.233 16.4316 206.015 16.3274 205.727 16.2778C205.439 16.2182 205.052 16.1885 204.566 16.1885V15.7865H216.266L216.445 19.1061H216.028C215.899 18.6198 215.775 18.2179 215.656 17.9003C215.547 17.5728 215.393 17.3148 215.194 17.1263C215.006 16.9377 214.743 16.8037 214.405 16.7243C214.078 16.645 213.631 16.6053 213.066 16.6053H208.868V22.6192H212.217C212.684 22.6192 213.056 22.5894 213.334 22.5299C213.621 22.4604 213.85 22.3463 214.018 22.1875C214.197 22.0188 214.326 21.7955 214.405 21.5176C214.495 21.2298 214.569 20.8626 214.629 20.4161H215.045V25.7304H214.629C214.569 25.2838 214.495 24.9166 214.405 24.6288C214.326 24.341 214.202 24.1128 214.033 23.944C213.865 23.7654 213.636 23.6414 213.348 23.5719C213.071 23.5024 212.693 23.4677 212.217 23.4677H208.868V28.4694C208.868 28.7473 208.873 28.9954 208.883 29.2137C208.903 29.4221 208.952 29.6007 209.032 29.7496C209.111 29.8885 209.235 29.9977 209.404 30.0771C209.582 30.1465 209.83 30.1813 210.148 30.1813H212.708C213.373 30.1813 213.919 30.1267 214.346 30.0175C214.773 29.9084 215.14 29.7347 215.447 29.4965C215.765 29.2583 216.048 28.9507 216.296 28.5736C216.544 28.1865 216.822 27.7251 217.129 27.1892H217.606L216.266 31ZM230.348 31H218.529V30.5683C218.886 30.5683 219.204 30.5485 219.481 30.5088C219.759 30.4591 219.988 30.3698 220.166 30.2408C220.355 30.1019 220.499 29.9084 220.598 29.6603C220.697 29.4122 220.747 29.0847 220.747 28.6778V18.1087C220.747 17.7118 220.697 17.3893 220.598 17.1412C220.499 16.8931 220.355 16.7045 220.166 16.5755C219.988 16.4365 219.759 16.3423 219.481 16.2927C219.204 16.243 218.886 16.2182 218.529 16.2182V15.7865H225.138V16.2182C224.771 16.2182 224.448 16.243 224.171 16.2927C223.893 16.3423 223.659 16.4365 223.471 16.5755C223.282 16.7045 223.138 16.8931 223.039 17.1412C222.94 17.3893 222.89 17.7118 222.89 18.1087V28.127C222.89 28.5041 222.92 28.8167 222.98 29.0648C223.039 29.303 223.138 29.4965 223.277 29.6454C223.426 29.7843 223.625 29.8836 223.873 29.9431C224.121 29.9927 224.434 30.0175 224.811 30.0175H226.329C227.063 30.0175 227.679 29.9778 228.175 29.8984C228.671 29.8091 229.098 29.6503 229.455 29.4221C229.822 29.1839 230.145 28.8564 230.423 28.4396C230.701 28.0129 230.983 27.4621 231.271 26.7873L231.658 26.8468L230.348 31Z" fill="#FFDE9D"/>
</svg>
