<svg width="124" height="45" viewBox="0 0 124 45" fill="none" xmlns="http://www.w3.org/2000/svg">
<path d="M20.5012 43.5C22.6664 37.3033 29.5951 23.6705 39.9882 18.7131C40.0664 17.2542 39.7605 15.2014 38.9138 13.0196M20.5012 1.5C20.5012 2.05082 20.5439 29.6084 20.5653 43.3183M20.5012 1.5C23.6755 1.5 26.38 2.015 28.6713 2.87705M20.5012 1.5C17.7028 1.78476 15.2821 2.33258 13.1935 3.0702M20.5653 43.3183C20.8359 38.2691 8.32176 20.7787 1.01412 18.7131C0.932137 17.1838 1.19779 15.1533 2.05927 13.0196M20.5653 43.3183C21.7222 37.2881 27.0116 22.7861 38.9138 13.0196M20.5653 43.3183C21.0852 36.9527 24.7234 20.7787 35.1165 7.0082M20.5653 43.3183C21.1189 35.3461 23.5153 16.0967 28.6713 2.87705M20.5653 43.3183C20.0026 35.0158 17.7405 15.3427 13.1935 3.0702M20.5653 43.3183C20.0293 36.9527 16.4323 20.7787 6.33191 7.0082M20.5653 43.3183C19.0754 36.3701 13.2885 20.5828 2.05927 13.0196M38.9138 13.0196C37.433 9.204 34.2982 4.99404 28.6713 2.87705M13.1935 3.0702C10.3158 4.08648 8.06849 5.46304 6.33191 7.0082M6.33191 7.0082C4.23013 8.87831 2.87656 10.9954 2.05927 13.0196" stroke="#FFDE9D" stroke-width="1.5" stroke-linecap="round"/>
<path d="M60.3633 11.4531C60.3633 12.3047 60.2227 13.1133 59.9414 13.8789C59.6602 14.6445 59.2617 15.3203 58.7461 15.9062C58.2383 16.4844 57.6211 16.9453 56.8945 17.2891C56.1758 17.625 55.3711 17.793 54.4805 17.793C53.5898 17.793 52.7812 17.625 52.0547 17.2891C51.3359 16.9531 50.7188 16.5 50.2031 15.9297C49.6953 15.3516 49.3047 14.6797 49.0312 13.9141C48.7578 13.1484 48.6211 12.3359 48.6211 11.4766C48.6211 10.6094 48.7656 9.80078 49.0547 9.05078C49.3516 8.29297 49.7656 7.63672 50.2969 7.08203C50.8281 6.51953 51.4609 6.07812 52.1953 5.75781C52.9297 5.42969 53.7383 5.26562 54.6211 5.26562C55.4883 5.26562 56.2734 5.43359 56.9766 5.76953C57.6797 6.09766 58.2812 6.54688 58.7812 7.11719C59.2891 7.67969 59.6797 8.33594 59.9531 9.08594C60.2266 9.83594 60.3633 10.625 60.3633 11.4531ZM58.3477 11.5703C58.3477 11.1328 58.3242 10.6875 58.2773 10.2344C58.2383 9.78125 58.1641 9.34375 58.0547 8.92188C57.9453 8.5 57.7969 8.10547 57.6094 7.73828C57.4219 7.37109 57.1836 7.05078 56.8945 6.77734C56.6055 6.50391 56.2578 6.28906 55.8516 6.13281C55.4531 5.96875 54.9805 5.88672 54.4336 5.88672C53.9336 5.88672 53.4922 5.96875 53.1094 6.13281C52.7344 6.28906 52.4062 6.50391 52.125 6.77734C51.8438 7.05078 51.6094 7.37109 51.4219 7.73828C51.2344 8.10547 51.082 8.49609 50.9648 8.91016C50.8555 9.31641 50.7773 9.73828 50.7305 10.1758C50.6836 10.6055 50.6602 11.0234 50.6602 11.4297C50.6602 11.8281 50.6836 12.2461 50.7305 12.6836C50.7773 13.1211 50.8594 13.5508 50.9766 13.9727C51.0938 14.3945 51.2461 14.7969 51.4336 15.1797C51.6211 15.5625 51.8555 15.8984 52.1367 16.1875C52.418 16.4766 52.75 16.707 53.1328 16.8789C53.5156 17.0508 53.957 17.1367 54.457 17.1367C54.9805 17.1367 55.4375 17.0586 55.8281 16.9023C56.2266 16.7461 56.5703 16.5352 56.8594 16.2695C57.1484 15.9961 57.3867 15.6797 57.5742 15.3203C57.7695 14.9531 57.9219 14.5664 58.0312 14.1602C58.1484 13.7461 58.2305 13.3203 58.2773 12.8828C58.3242 12.4375 58.3477 12 58.3477 11.5703ZM72.4805 14.6875C71.9414 15.6562 71.2617 16.418 70.4414 16.9727C69.6289 17.5195 68.6602 17.793 67.5352 17.793C66.6445 17.793 65.8398 17.6367 65.1211 17.3242C64.4023 17.0117 63.7891 16.582 63.2812 16.0352C62.7734 15.4883 62.3828 14.8438 62.1094 14.1016C61.8359 13.3594 61.6992 12.5547 61.6992 11.6875C61.6992 10.7969 61.8438 9.96484 62.1328 9.19141C62.4297 8.41016 62.8438 7.73047 63.375 7.15234C63.9141 6.56641 64.5547 6.10547 65.2969 5.76953C66.0469 5.43359 66.8789 5.26562 67.793 5.26562C68.0977 5.26562 68.3789 5.28906 68.6367 5.33594C68.9023 5.375 69.1562 5.42969 69.3984 5.5C69.6484 5.57031 69.8945 5.65625 70.1367 5.75781C70.3789 5.85156 70.6328 5.95703 70.8984 6.07422C71.0156 6.07422 71.1172 6.04688 71.2031 5.99219C71.2891 5.9375 71.3594 5.87109 71.4141 5.79297C71.4688 5.71484 71.5117 5.62891 71.543 5.53516C71.582 5.43359 71.6133 5.34375 71.6367 5.26562H71.9531L72.2109 9.32031H71.9531C71.8047 8.82031 71.6133 8.36328 71.3789 7.94922C71.1523 7.52734 70.875 7.16406 70.5469 6.85938C70.2266 6.55469 69.8516 6.31641 69.4219 6.14453C68.9922 5.97266 68.5 5.88672 67.9453 5.88672C67.3984 5.88672 66.9141 5.96875 66.4922 6.13281C66.0781 6.28906 65.7109 6.50781 65.3906 6.78906C65.0781 7.07031 64.8125 7.39844 64.5938 7.77344C64.3828 8.14844 64.2109 8.55469 64.0781 8.99219C63.9531 9.42188 63.8594 9.87109 63.7969 10.3398C63.7422 10.8008 63.7148 11.2578 63.7148 11.7109C63.7148 12.4219 63.8008 13.0977 63.9727 13.7383C64.1445 14.3789 64.4102 14.9414 64.7695 15.4258C65.1367 15.9102 65.6016 16.293 66.1641 16.5742C66.7344 16.8555 67.4141 16.9961 68.2031 16.9961C68.7031 16.9961 69.1406 16.9375 69.5156 16.8203C69.8984 16.7031 70.2422 16.5391 70.5469 16.3281C70.8594 16.1094 71.1484 15.8477 71.4141 15.543C71.6797 15.2305 71.9453 14.8828 72.2109 14.5L72.4805 14.6875ZM82.7227 17.5H73.5117V17.1602C73.8867 17.1602 74.1836 17.1367 74.4023 17.0898C74.6289 17.043 74.8008 16.957 74.918 16.832C75.0352 16.6992 75.1133 16.5195 75.1523 16.293C75.1914 16.0586 75.2109 15.7578 75.2109 15.3906V7.58594C75.2109 7.21094 75.1953 6.91016 75.1641 6.68359C75.1328 6.45703 75.0586 6.28125 74.9414 6.15625C74.8242 6.03125 74.6523 5.94922 74.4258 5.91016C74.1992 5.86328 73.8945 5.83984 73.5117 5.83984V5.52344H82.7227L82.8633 8.13672H82.5352C82.4336 7.75391 82.3359 7.4375 82.2422 7.1875C82.1562 6.92969 82.0352 6.72656 81.8789 6.57812C81.7305 6.42969 81.5234 6.32422 81.2578 6.26172C81 6.19922 80.6484 6.16797 80.2031 6.16797H76.8984V10.9023H79.5352C79.9023 10.9023 80.1953 10.8789 80.4141 10.832C80.6406 10.7773 80.8203 10.6875 80.9531 10.5625C81.0938 10.4297 81.1953 10.2539 81.2578 10.0352C81.3281 9.80859 81.3867 9.51953 81.4336 9.16797H81.7617V13.3516H81.4336C81.3867 13 81.3281 12.7109 81.2578 12.4844C81.1953 12.2578 81.0977 12.0781 80.9648 11.9453C80.832 11.8047 80.6523 11.707 80.4258 11.6523C80.207 11.5977 79.9102 11.5703 79.5352 11.5703H76.8984V15.5078C76.8984 15.7266 76.9023 15.9219 76.9102 16.0938C76.9258 16.2578 76.9648 16.3984 77.0273 16.5156C77.0898 16.625 77.1875 16.7109 77.3203 16.7734C77.4609 16.8281 77.6562 16.8555 77.9062 16.8555H79.9219C80.4453 16.8555 80.875 16.8125 81.2109 16.7266C81.5469 16.6406 81.8359 16.5039 82.0781 16.3164C82.3281 16.1289 82.5508 15.8867 82.7461 15.5898C82.9414 15.2852 83.1602 14.9219 83.4023 14.5H83.7773L82.7227 17.5ZM92.2969 17.5V17.1602C92.4297 17.1602 92.5664 17.1523 92.707 17.1367C92.8477 17.1133 92.9766 17.0742 93.0938 17.0195C93.2109 16.9648 93.3086 16.8906 93.3867 16.7969C93.4648 16.6953 93.5039 16.5625 93.5039 16.3984C93.5039 16.2422 93.457 16.0234 93.3633 15.7422C93.2695 15.4609 93.1641 15.1719 93.0469 14.875C92.9297 14.5781 92.8125 14.3008 92.6953 14.043C92.5781 13.7852 92.4961 13.6016 92.4492 13.4922H87.8086C87.7773 13.5547 87.7266 13.6602 87.6562 13.8086C87.5938 13.9492 87.5195 14.1133 87.4336 14.3008C87.3477 14.4805 87.2617 14.6719 87.1758 14.875C87.0898 15.0781 87.0078 15.2773 86.9297 15.4727C86.8594 15.668 86.8008 15.8477 86.7539 16.0117C86.707 16.1758 86.6836 16.3047 86.6836 16.3984C86.6836 16.5547 86.7344 16.6836 86.8359 16.7852C86.9375 16.8789 87.0625 16.9531 87.2109 17.0078C87.3594 17.0625 87.5117 17.1016 87.668 17.125C87.8242 17.1406 87.9609 17.1523 88.0781 17.1602V17.5H84.3047V17.1602C84.5859 17.1523 84.8281 17.0859 85.0312 16.9609C85.2344 16.8359 85.4102 16.6758 85.5586 16.4805C85.7148 16.2852 85.8477 16.0703 85.957 15.8359C86.0664 15.5938 86.1719 15.3555 86.2734 15.1211L90.5039 5.26562H90.8086L94.9688 15.1914C95.0859 15.4648 95.1953 15.7188 95.2969 15.9531C95.4062 16.1797 95.5352 16.3828 95.6836 16.5625C95.832 16.7344 96.0117 16.875 96.2227 16.9844C96.4336 17.0859 96.7031 17.1445 97.0312 17.1602V17.5H92.2969ZM90.1641 7.97266L88.0781 12.8477H92.2031L90.1641 7.97266ZM109.992 5.83984C109.617 5.83984 109.316 5.86328 109.09 5.91016C108.863 5.95703 108.688 6.04688 108.562 6.17969C108.445 6.30469 108.367 6.48047 108.328 6.70703C108.297 6.93359 108.281 7.22656 108.281 7.58594V17.6875H107.977L100.055 8.04297V15.4141C100.055 15.7891 100.07 16.0898 100.102 16.3164C100.141 16.543 100.219 16.7188 100.336 16.8438C100.453 16.9688 100.625 17.0547 100.852 17.1016C101.078 17.1406 101.379 17.1602 101.754 17.1602V17.5H97.582V17.1602C97.957 17.1602 98.2539 17.1367 98.4727 17.0898C98.6992 17.043 98.8711 16.957 98.9883 16.832C99.1055 16.6992 99.1836 16.5195 99.2227 16.293C99.2617 16.0664 99.2812 15.7734 99.2812 15.4141V7.08203C99.1328 6.87891 98.9922 6.70312 98.8594 6.55469C98.7344 6.39844 98.5977 6.26953 98.4492 6.16797C98.3086 6.05859 98.1445 5.97656 97.957 5.92188C97.7695 5.86719 97.5391 5.83984 97.2656 5.83984V5.52344H100.195L107.52 14.5V7.58594C107.52 7.22656 107.5 6.93359 107.461 6.70703C107.422 6.48047 107.34 6.30469 107.215 6.17969C107.098 6.04688 106.926 5.95703 106.699 5.91016C106.48 5.86328 106.184 5.83984 105.809 5.83984V5.52344H109.992V5.83984ZM122.59 11.4531C122.59 12.3047 122.449 13.1133 122.168 13.8789C121.887 14.6445 121.488 15.3203 120.973 15.9062C120.465 16.4844 119.848 16.9453 119.121 17.2891C118.402 17.625 117.598 17.793 116.707 17.793C115.816 17.793 115.008 17.625 114.281 17.2891C113.562 16.9531 112.945 16.5 112.43 15.9297C111.922 15.3516 111.531 14.6797 111.258 13.9141C110.984 13.1484 110.848 12.3359 110.848 11.4766C110.848 10.6094 110.992 9.80078 111.281 9.05078C111.578 8.29297 111.992 7.63672 112.523 7.08203C113.055 6.51953 113.688 6.07812 114.422 5.75781C115.156 5.42969 115.965 5.26562 116.848 5.26562C117.715 5.26562 118.5 5.43359 119.203 5.76953C119.906 6.09766 120.508 6.54688 121.008 7.11719C121.516 7.67969 121.906 8.33594 122.18 9.08594C122.453 9.83594 122.59 10.625 122.59 11.4531ZM120.574 11.5703C120.574 11.1328 120.551 10.6875 120.504 10.2344C120.465 9.78125 120.391 9.34375 120.281 8.92188C120.172 8.5 120.023 8.10547 119.836 7.73828C119.648 7.37109 119.41 7.05078 119.121 6.77734C118.832 6.50391 118.484 6.28906 118.078 6.13281C117.68 5.96875 117.207 5.88672 116.66 5.88672C116.16 5.88672 115.719 5.96875 115.336 6.13281C114.961 6.28906 114.633 6.50391 114.352 6.77734C114.07 7.05078 113.836 7.37109 113.648 7.73828C113.461 8.10547 113.309 8.49609 113.191 8.91016C113.082 9.31641 113.004 9.73828 112.957 10.1758C112.91 10.6055 112.887 11.0234 112.887 11.4297C112.887 11.8281 112.91 12.2461 112.957 12.6836C113.004 13.1211 113.086 13.5508 113.203 13.9727C113.32 14.3945 113.473 14.7969 113.66 15.1797C113.848 15.5625 114.082 15.8984 114.363 16.1875C114.645 16.4766 114.977 16.707 115.359 16.8789C115.742 17.0508 116.184 17.1367 116.684 17.1367C117.207 17.1367 117.664 17.0586 118.055 16.9023C118.453 16.7461 118.797 16.5352 119.086 16.2695C119.375 15.9961 119.613 15.6797 119.801 15.3203C119.996 14.9531 120.148 14.5664 120.258 14.1602C120.375 13.7461 120.457 13.3203 120.504 12.8828C120.551 12.4375 120.574 12 120.574 11.5703Z" fill="#FFDE9D"/>
<path d="M55.5586 39.5V39.1602C55.9336 39.1602 56.2344 39.1367 56.4609 39.0898C56.6953 39.0352 56.8711 38.9453 56.9883 38.8203C57.1133 38.6875 57.1953 38.5078 57.2344 38.2812C57.2734 38.0469 57.293 37.75 57.293 37.3906V33.7109H51.6914V37.3906C51.6914 37.7578 51.7109 38.0586 51.75 38.293C51.7891 38.5195 51.8711 38.6992 51.9961 38.832C52.1211 38.957 52.2969 39.043 52.5234 39.0898C52.7578 39.1367 53.0664 39.1602 53.4492 39.1602V39.5H48.3164V39.1602C48.6992 39.1602 49.0039 39.1367 49.2305 39.0898C49.457 39.043 49.6289 38.957 49.7461 38.832C49.8633 38.6992 49.9375 38.5195 49.9688 38.293C50 38.0586 50.0156 37.7578 50.0156 37.3906V29.6328C50.0156 29.2656 49.9961 28.9688 49.957 28.7422C49.9258 28.5078 49.8516 28.3242 49.7344 28.1914C49.6172 28.0586 49.4453 27.9688 49.2188 27.9219C48.9922 27.8672 48.6914 27.8398 48.3164 27.8398V27.5234H53.4492V27.8398C53.0742 27.8398 52.7734 27.8672 52.5469 27.9219C52.3203 27.9688 52.1406 28.0586 52.0078 28.1914C51.8828 28.3242 51.7969 28.5078 51.75 28.7422C51.7109 28.9688 51.6914 29.2656 51.6914 29.6328V33.0664H57.293V29.6328C57.293 29.2656 57.2734 28.9688 57.2344 28.7422C57.1953 28.5078 57.1133 28.3242 56.9883 28.1914C56.8711 28.0586 56.6953 27.9688 56.4609 27.9219C56.2344 27.8672 55.9336 27.8398 55.5586 27.8398V27.5234H60.6914V27.8398C60.3398 27.8398 60.0508 27.8633 59.8242 27.9102C59.6055 27.9492 59.4336 28.0312 59.3086 28.1562C59.1914 28.2734 59.1094 28.4414 59.0625 28.6602C59.0156 28.8711 58.9922 29.1484 58.9922 29.4922V37.5078C58.9922 37.8672 59.0156 38.1562 59.0625 38.375C59.1094 38.5938 59.1914 38.7617 59.3086 38.8789C59.4336 38.9961 59.6055 39.0742 59.8242 39.1133C60.0508 39.1445 60.3398 39.1602 60.6914 39.1602V39.5H55.5586ZM73.418 33.4531C73.418 34.3047 73.2773 35.1133 72.9961 35.8789C72.7148 36.6445 72.3164 37.3203 71.8008 37.9062C71.293 38.4844 70.6758 38.9453 69.9492 39.2891C69.2305 39.625 68.4258 39.793 67.5352 39.793C66.6445 39.793 65.8359 39.625 65.1094 39.2891C64.3906 38.9531 63.7734 38.5 63.2578 37.9297C62.75 37.3516 62.3594 36.6797 62.0859 35.9141C61.8125 35.1484 61.6758 34.3359 61.6758 33.4766C61.6758 32.6094 61.8203 31.8008 62.1094 31.0508C62.4062 30.293 62.8203 29.6367 63.3516 29.082C63.8828 28.5195 64.5156 28.0781 65.25 27.7578C65.9844 27.4297 66.793 27.2656 67.6758 27.2656C68.543 27.2656 69.3281 27.4336 70.0312 27.7695C70.7344 28.0977 71.3359 28.5469 71.8359 29.1172C72.3438 29.6797 72.7344 30.3359 73.0078 31.0859C73.2812 31.8359 73.418 32.625 73.418 33.4531ZM71.4023 33.5703C71.4023 33.1328 71.3789 32.6875 71.332 32.2344C71.293 31.7812 71.2188 31.3438 71.1094 30.9219C71 30.5 70.8516 30.1055 70.6641 29.7383C70.4766 29.3711 70.2383 29.0508 69.9492 28.7773C69.6602 28.5039 69.3125 28.2891 68.9062 28.1328C68.5078 27.9688 68.0352 27.8867 67.4883 27.8867C66.9883 27.8867 66.5469 27.9688 66.1641 28.1328C65.7891 28.2891 65.4609 28.5039 65.1797 28.7773C64.8984 29.0508 64.6641 29.3711 64.4766 29.7383C64.2891 30.1055 64.1367 30.4961 64.0195 30.9102C63.9102 31.3164 63.832 31.7383 63.7852 32.1758C63.7383 32.6055 63.7148 33.0234 63.7148 33.4297C63.7148 33.8281 63.7383 34.2461 63.7852 34.6836C63.832 35.1211 63.9141 35.5508 64.0312 35.9727C64.1484 36.3945 64.3008 36.7969 64.4883 37.1797C64.6758 37.5625 64.9102 37.8984 65.1914 38.1875C65.4727 38.4766 65.8047 38.707 66.1875 38.8789C66.5703 39.0508 67.0117 39.1367 67.5117 39.1367C68.0352 39.1367 68.4922 39.0586 68.8828 38.9023C69.2812 38.7461 69.625 38.5352 69.9141 38.2695C70.2031 37.9961 70.4414 37.6797 70.6289 37.3203C70.8242 36.9531 70.9766 36.5664 71.0859 36.1602C71.2031 35.7461 71.2852 35.3203 71.332 34.8828C71.3789 34.4375 71.4023 34 71.4023 33.5703ZM84.3281 30.3359C84.2578 29.6562 84.0508 29.1445 83.707 28.8008C83.3633 28.4492 82.8359 28.2734 82.125 28.2734H80.4492V37.4141C80.4492 37.7812 80.4648 38.0781 80.4961 38.3047C80.5273 38.5312 80.6016 38.7109 80.7188 38.8438C80.8359 38.9688 81.0039 39.0547 81.2227 39.1016C81.4492 39.1406 81.75 39.1602 82.125 39.1602V39.5H77.0625V39.1602C77.4375 39.1602 77.7344 39.1367 77.9531 39.0898C78.1719 39.043 78.3398 38.957 78.457 38.832C78.5742 38.6992 78.6484 38.5195 78.6797 38.293C78.7188 38.0664 78.7383 37.7734 78.7383 37.4141V28.2734H77.2969C76.9219 28.2734 76.5938 28.3086 76.3125 28.3789C76.0312 28.4414 75.793 28.5508 75.5977 28.707C75.4102 28.8633 75.2617 29.0742 75.1523 29.3398C75.0508 29.6055 74.9844 29.9375 74.9531 30.3359H74.543L74.6602 27.5234H84.5977L84.7148 30.3359H84.3281ZM94.7227 39.5H85.5117V39.1602C85.8867 39.1602 86.1836 39.1367 86.4023 39.0898C86.6289 39.043 86.8008 38.957 86.918 38.832C87.0352 38.6992 87.1133 38.5195 87.1523 38.293C87.1914 38.0586 87.2109 37.7578 87.2109 37.3906V29.5859C87.2109 29.2109 87.1953 28.9102 87.1641 28.6836C87.1328 28.457 87.0586 28.2812 86.9414 28.1562C86.8242 28.0312 86.6523 27.9492 86.4258 27.9102C86.1992 27.8633 85.8945 27.8398 85.5117 27.8398V27.5234H94.7227L94.8633 30.1367H94.5352C94.4336 29.7539 94.3359 29.4375 94.2422 29.1875C94.1562 28.9297 94.0352 28.7266 93.8789 28.5781C93.7305 28.4297 93.5234 28.3242 93.2578 28.2617C93 28.1992 92.6484 28.168 92.2031 28.168H88.8984V32.9023H91.5352C91.9023 32.9023 92.1953 32.8789 92.4141 32.832C92.6406 32.7773 92.8203 32.6875 92.9531 32.5625C93.0938 32.4297 93.1953 32.2539 93.2578 32.0352C93.3281 31.8086 93.3867 31.5195 93.4336 31.168H93.7617V35.3516H93.4336C93.3867 35 93.3281 34.7109 93.2578 34.4844C93.1953 34.2578 93.0977 34.0781 92.9648 33.9453C92.832 33.8047 92.6523 33.707 92.4258 33.6523C92.207 33.5977 91.9102 33.5703 91.5352 33.5703H88.8984V37.5078C88.8984 37.7266 88.9023 37.9219 88.9102 38.0938C88.9258 38.2578 88.9648 38.3984 89.0273 38.5156C89.0898 38.625 89.1875 38.7109 89.3203 38.7734C89.4609 38.8281 89.6562 38.8555 89.9062 38.8555H91.9219C92.4453 38.8555 92.875 38.8125 93.2109 38.7266C93.5469 38.6406 93.8359 38.5039 94.0781 38.3164C94.3281 38.1289 94.5508 37.8867 94.7461 37.5898C94.9414 37.2852 95.1602 36.9219 95.4023 36.5H95.7773L94.7227 39.5ZM105.809 39.5H96.5039V39.1602C96.7852 39.1602 97.0352 39.1445 97.2539 39.1133C97.4727 39.0742 97.6523 39.0039 97.793 38.9023C97.9414 38.793 98.0547 38.6406 98.1328 38.4453C98.2109 38.25 98.25 37.9922 98.25 37.6719V29.3516C98.25 29.0391 98.2109 28.7852 98.1328 28.5898C98.0547 28.3945 97.9414 28.2461 97.793 28.1445C97.6523 28.0352 97.4727 27.9609 97.2539 27.9219C97.0352 27.8828 96.7852 27.8633 96.5039 27.8633V27.5234H101.707V27.8633C101.418 27.8633 101.164 27.8828 100.945 27.9219C100.727 27.9609 100.543 28.0352 100.395 28.1445C100.246 28.2461 100.133 28.3945 100.055 28.5898C99.9766 28.7852 99.9375 29.0391 99.9375 29.3516V37.2383C99.9375 37.5352 99.9609 37.7812 100.008 37.9766C100.055 38.1641 100.133 38.3164 100.242 38.4336C100.359 38.543 100.516 38.6211 100.711 38.668C100.906 38.707 101.152 38.7266 101.449 38.7266H102.645C103.223 38.7266 103.707 38.6953 104.098 38.6328C104.488 38.5625 104.824 38.4375 105.105 38.2578C105.395 38.0703 105.648 37.8125 105.867 37.4844C106.086 37.1484 106.309 36.7148 106.535 36.1836L106.84 36.2305L105.809 39.5Z" fill="#FFDE9D"/>
</svg>
