<svg width="125" height="44" viewBox="0 0 125 44" fill="none" xmlns="http://www.w3.org/2000/svg">
<path d="M21.0012 43C23.1664 36.8033 30.0951 23.1705 40.4882 18.2131C40.5664 16.7542 40.2605 14.7014 39.4138 12.5196M21.0012 1C21.0012 1.55082 21.0439 29.1084 21.0653 42.8183M21.0012 1C24.1755 1 26.88 1.515 29.1713 2.37705M21.0012 1C18.2028 1.28476 15.7821 1.83258 13.6935 2.5702M21.0653 42.8183C21.3359 37.7691 8.82176 20.2787 1.51412 18.2131C1.43214 16.6838 1.69779 14.6533 2.55927 12.5196M21.0653 42.8183C22.2222 36.7881 27.5116 22.2861 39.4138 12.5196M21.0653 42.8183C21.5852 36.4527 25.2234 20.2787 35.6165 6.5082M21.0653 42.8183C21.6189 34.8461 24.0153 15.5967 29.1713 2.37705M21.0653 42.8183C20.5026 34.5158 18.2405 14.8427 13.6935 2.5702M21.0653 42.8183C20.5293 36.4527 16.9323 20.2787 6.83191 6.5082M21.0653 42.8183C19.5754 35.8701 13.7885 20.0828 2.55927 12.5196M39.4138 12.5196C37.933 8.704 34.7982 4.49404 29.1713 2.37705M13.6935 2.5702C10.8158 3.58648 8.56849 4.96304 6.83191 6.5082M6.83191 6.5082C4.73013 8.37831 3.37656 10.4954 2.55927 12.5196" stroke="#FFDE9D" stroke-width="1.5" stroke-linecap="round"/>
<path d="M60.8633 10.9531C60.8633 11.8047 60.7227 12.6133 60.4414 13.3789C60.1602 14.1445 59.7617 14.8203 59.2461 15.4062C58.7383 15.9844 58.1211 16.4453 57.3945 16.7891C56.6758 17.125 55.8711 17.293 54.9805 17.293C54.0898 17.293 53.2812 17.125 52.5547 16.7891C51.8359 16.4531 51.2188 16 50.7031 15.4297C50.1953 14.8516 49.8047 14.1797 49.5312 13.4141C49.2578 12.6484 49.1211 11.8359 49.1211 10.9766C49.1211 10.1094 49.2656 9.30078 49.5547 8.55078C49.8516 7.79297 50.2656 7.13672 50.7969 6.58203C51.3281 6.01953 51.9609 5.57812 52.6953 5.25781C53.4297 4.92969 54.2383 4.76562 55.1211 4.76562C55.9883 4.76562 56.7734 4.93359 57.4766 5.26953C58.1797 5.59766 58.7812 6.04688 59.2812 6.61719C59.7891 7.17969 60.1797 7.83594 60.4531 8.58594C60.7266 9.33594 60.8633 10.125 60.8633 10.9531ZM58.8477 11.0703C58.8477 10.6328 58.8242 10.1875 58.7773 9.73438C58.7383 9.28125 58.6641 8.84375 58.5547 8.42188C58.4453 8 58.2969 7.60547 58.1094 7.23828C57.9219 6.87109 57.6836 6.55078 57.3945 6.27734C57.1055 6.00391 56.7578 5.78906 56.3516 5.63281C55.9531 5.46875 55.4805 5.38672 54.9336 5.38672C54.4336 5.38672 53.9922 5.46875 53.6094 5.63281C53.2344 5.78906 52.9062 6.00391 52.625 6.27734C52.3438 6.55078 52.1094 6.87109 51.9219 7.23828C51.7344 7.60547 51.582 7.99609 51.4648 8.41016C51.3555 8.81641 51.2773 9.23828 51.2305 9.67578C51.1836 10.1055 51.1602 10.5234 51.1602 10.9297C51.1602 11.3281 51.1836 11.7461 51.2305 12.1836C51.2773 12.6211 51.3594 13.0508 51.4766 13.4727C51.5938 13.8945 51.7461 14.2969 51.9336 14.6797C52.1211 15.0625 52.3555 15.3984 52.6367 15.6875C52.918 15.9766 53.25 16.207 53.6328 16.3789C54.0156 16.5508 54.457 16.6367 54.957 16.6367C55.4805 16.6367 55.9375 16.5586 56.3281 16.4023C56.7266 16.2461 57.0703 16.0352 57.3594 15.7695C57.6484 15.4961 57.8867 15.1797 58.0742 14.8203C58.2695 14.4531 58.4219 14.0664 58.5312 13.6602C58.6484 13.2461 58.7305 12.8203 58.7773 12.3828C58.8242 11.9375 58.8477 11.5 58.8477 11.0703ZM72.9805 14.1875C72.4414 15.1562 71.7617 15.918 70.9414 16.4727C70.1289 17.0195 69.1602 17.293 68.0352 17.293C67.1445 17.293 66.3398 17.1367 65.6211 16.8242C64.9023 16.5117 64.2891 16.082 63.7812 15.5352C63.2734 14.9883 62.8828 14.3438 62.6094 13.6016C62.3359 12.8594 62.1992 12.0547 62.1992 11.1875C62.1992 10.2969 62.3438 9.46484 62.6328 8.69141C62.9297 7.91016 63.3438 7.23047 63.875 6.65234C64.4141 6.06641 65.0547 5.60547 65.7969 5.26953C66.5469 4.93359 67.3789 4.76562 68.293 4.76562C68.5977 4.76562 68.8789 4.78906 69.1367 4.83594C69.4023 4.875 69.6562 4.92969 69.8984 5C70.1484 5.07031 70.3945 5.15625 70.6367 5.25781C70.8789 5.35156 71.1328 5.45703 71.3984 5.57422C71.5156 5.57422 71.6172 5.54688 71.7031 5.49219C71.7891 5.4375 71.8594 5.37109 71.9141 5.29297C71.9688 5.21484 72.0117 5.12891 72.043 5.03516C72.082 4.93359 72.1133 4.84375 72.1367 4.76562H72.4531L72.7109 8.82031H72.4531C72.3047 8.32031 72.1133 7.86328 71.8789 7.44922C71.6523 7.02734 71.375 6.66406 71.0469 6.35938C70.7266 6.05469 70.3516 5.81641 69.9219 5.64453C69.4922 5.47266 69 5.38672 68.4453 5.38672C67.8984 5.38672 67.4141 5.46875 66.9922 5.63281C66.5781 5.78906 66.2109 6.00781 65.8906 6.28906C65.5781 6.57031 65.3125 6.89844 65.0938 7.27344C64.8828 7.64844 64.7109 8.05469 64.5781 8.49219C64.4531 8.92188 64.3594 9.37109 64.2969 9.83984C64.2422 10.3008 64.2148 10.7578 64.2148 11.2109C64.2148 11.9219 64.3008 12.5977 64.4727 13.2383C64.6445 13.8789 64.9102 14.4414 65.2695 14.9258C65.6367 15.4102 66.1016 15.793 66.6641 16.0742C67.2344 16.3555 67.9141 16.4961 68.7031 16.4961C69.2031 16.4961 69.6406 16.4375 70.0156 16.3203C70.3984 16.2031 70.7422 16.0391 71.0469 15.8281C71.3594 15.6094 71.6484 15.3477 71.9141 15.043C72.1797 14.7305 72.4453 14.3828 72.7109 14L72.9805 14.1875ZM83.2227 17H74.0117V16.6602C74.3867 16.6602 74.6836 16.6367 74.9023 16.5898C75.1289 16.543 75.3008 16.457 75.418 16.332C75.5352 16.1992 75.6133 16.0195 75.6523 15.793C75.6914 15.5586 75.7109 15.2578 75.7109 14.8906V7.08594C75.7109 6.71094 75.6953 6.41016 75.6641 6.18359C75.6328 5.95703 75.5586 5.78125 75.4414 5.65625C75.3242 5.53125 75.1523 5.44922 74.9258 5.41016C74.6992 5.36328 74.3945 5.33984 74.0117 5.33984V5.02344H83.2227L83.3633 7.63672H83.0352C82.9336 7.25391 82.8359 6.9375 82.7422 6.6875C82.6562 6.42969 82.5352 6.22656 82.3789 6.07812C82.2305 5.92969 82.0234 5.82422 81.7578 5.76172C81.5 5.69922 81.1484 5.66797 80.7031 5.66797H77.3984V10.4023H80.0352C80.4023 10.4023 80.6953 10.3789 80.9141 10.332C81.1406 10.2773 81.3203 10.1875 81.4531 10.0625C81.5938 9.92969 81.6953 9.75391 81.7578 9.53516C81.8281 9.30859 81.8867 9.01953 81.9336 8.66797H82.2617V12.8516H81.9336C81.8867 12.5 81.8281 12.2109 81.7578 11.9844C81.6953 11.7578 81.5977 11.5781 81.4648 11.4453C81.332 11.3047 81.1523 11.207 80.9258 11.1523C80.707 11.0977 80.4102 11.0703 80.0352 11.0703H77.3984V15.0078C77.3984 15.2266 77.4023 15.4219 77.4102 15.5938C77.4258 15.7578 77.4648 15.8984 77.5273 16.0156C77.5898 16.125 77.6875 16.2109 77.8203 16.2734C77.9609 16.3281 78.1562 16.3555 78.4062 16.3555H80.4219C80.9453 16.3555 81.375 16.3125 81.7109 16.2266C82.0469 16.1406 82.3359 16.0039 82.5781 15.8164C82.8281 15.6289 83.0508 15.3867 83.2461 15.0898C83.4414 14.7852 83.6602 14.4219 83.9023 14H84.2773L83.2227 17ZM92.7969 17V16.6602C92.9297 16.6602 93.0664 16.6523 93.207 16.6367C93.3477 16.6133 93.4766 16.5742 93.5938 16.5195C93.7109 16.4648 93.8086 16.3906 93.8867 16.2969C93.9648 16.1953 94.0039 16.0625 94.0039 15.8984C94.0039 15.7422 93.957 15.5234 93.8633 15.2422C93.7695 14.9609 93.6641 14.6719 93.5469 14.375C93.4297 14.0781 93.3125 13.8008 93.1953 13.543C93.0781 13.2852 92.9961 13.1016 92.9492 12.9922H88.3086C88.2773 13.0547 88.2266 13.1602 88.1562 13.3086C88.0938 13.4492 88.0195 13.6133 87.9336 13.8008C87.8477 13.9805 87.7617 14.1719 87.6758 14.375C87.5898 14.5781 87.5078 14.7773 87.4297 14.9727C87.3594 15.168 87.3008 15.3477 87.2539 15.5117C87.207 15.6758 87.1836 15.8047 87.1836 15.8984C87.1836 16.0547 87.2344 16.1836 87.3359 16.2852C87.4375 16.3789 87.5625 16.4531 87.7109 16.5078C87.8594 16.5625 88.0117 16.6016 88.168 16.625C88.3242 16.6406 88.4609 16.6523 88.5781 16.6602V17H84.8047V16.6602C85.0859 16.6523 85.3281 16.5859 85.5312 16.4609C85.7344 16.3359 85.9102 16.1758 86.0586 15.9805C86.2148 15.7852 86.3477 15.5703 86.457 15.3359C86.5664 15.0938 86.6719 14.8555 86.7734 14.6211L91.0039 4.76562H91.3086L95.4688 14.6914C95.5859 14.9648 95.6953 15.2188 95.7969 15.4531C95.9062 15.6797 96.0352 15.8828 96.1836 16.0625C96.332 16.2344 96.5117 16.375 96.7227 16.4844C96.9336 16.5859 97.2031 16.6445 97.5312 16.6602V17H92.7969ZM90.6641 7.47266L88.5781 12.3477H92.7031L90.6641 7.47266ZM110.492 5.33984C110.117 5.33984 109.816 5.36328 109.59 5.41016C109.363 5.45703 109.188 5.54688 109.062 5.67969C108.945 5.80469 108.867 5.98047 108.828 6.20703C108.797 6.43359 108.781 6.72656 108.781 7.08594V17.1875H108.477L100.555 7.54297V14.9141C100.555 15.2891 100.57 15.5898 100.602 15.8164C100.641 16.043 100.719 16.2188 100.836 16.3438C100.953 16.4688 101.125 16.5547 101.352 16.6016C101.578 16.6406 101.879 16.6602 102.254 16.6602V17H98.082V16.6602C98.457 16.6602 98.7539 16.6367 98.9727 16.5898C99.1992 16.543 99.3711 16.457 99.4883 16.332C99.6055 16.1992 99.6836 16.0195 99.7227 15.793C99.7617 15.5664 99.7812 15.2734 99.7812 14.9141V6.58203C99.6328 6.37891 99.4922 6.20312 99.3594 6.05469C99.2344 5.89844 99.0977 5.76953 98.9492 5.66797C98.8086 5.55859 98.6445 5.47656 98.457 5.42188C98.2695 5.36719 98.0391 5.33984 97.7656 5.33984V5.02344H100.695L108.02 14V7.08594C108.02 6.72656 108 6.43359 107.961 6.20703C107.922 5.98047 107.84 5.80469 107.715 5.67969C107.598 5.54688 107.426 5.45703 107.199 5.41016C106.98 5.36328 106.684 5.33984 106.309 5.33984V5.02344H110.492V5.33984ZM123.09 10.9531C123.09 11.8047 122.949 12.6133 122.668 13.3789C122.387 14.1445 121.988 14.8203 121.473 15.4062C120.965 15.9844 120.348 16.4453 119.621 16.7891C118.902 17.125 118.098 17.293 117.207 17.293C116.316 17.293 115.508 17.125 114.781 16.7891C114.062 16.4531 113.445 16 112.93 15.4297C112.422 14.8516 112.031 14.1797 111.758 13.4141C111.484 12.6484 111.348 11.8359 111.348 10.9766C111.348 10.1094 111.492 9.30078 111.781 8.55078C112.078 7.79297 112.492 7.13672 113.023 6.58203C113.555 6.01953 114.188 5.57812 114.922 5.25781C115.656 4.92969 116.465 4.76562 117.348 4.76562C118.215 4.76562 119 4.93359 119.703 5.26953C120.406 5.59766 121.008 6.04688 121.508 6.61719C122.016 7.17969 122.406 7.83594 122.68 8.58594C122.953 9.33594 123.09 10.125 123.09 10.9531ZM121.074 11.0703C121.074 10.6328 121.051 10.1875 121.004 9.73438C120.965 9.28125 120.891 8.84375 120.781 8.42188C120.672 8 120.523 7.60547 120.336 7.23828C120.148 6.87109 119.91 6.55078 119.621 6.27734C119.332 6.00391 118.984 5.78906 118.578 5.63281C118.18 5.46875 117.707 5.38672 117.16 5.38672C116.66 5.38672 116.219 5.46875 115.836 5.63281C115.461 5.78906 115.133 6.00391 114.852 6.27734C114.57 6.55078 114.336 6.87109 114.148 7.23828C113.961 7.60547 113.809 7.99609 113.691 8.41016C113.582 8.81641 113.504 9.23828 113.457 9.67578C113.41 10.1055 113.387 10.5234 113.387 10.9297C113.387 11.3281 113.41 11.7461 113.457 12.1836C113.504 12.6211 113.586 13.0508 113.703 13.4727C113.82 13.8945 113.973 14.2969 114.16 14.6797C114.348 15.0625 114.582 15.3984 114.863 15.6875C115.145 15.9766 115.477 16.207 115.859 16.3789C116.242 16.5508 116.684 16.6367 117.184 16.6367C117.707 16.6367 118.164 16.5586 118.555 16.4023C118.953 16.2461 119.297 16.0352 119.586 15.7695C119.875 15.4961 120.113 15.1797 120.301 14.8203C120.496 14.4531 120.648 14.0664 120.758 13.6602C120.875 13.2461 120.957 12.8203 121.004 12.3828C121.051 11.9375 121.074 11.5 121.074 11.0703Z" fill="#FFDE9D"/>
<path d="M56.0586 39V38.6602C56.4336 38.6602 56.7344 38.6367 56.9609 38.5898C57.1953 38.5352 57.3711 38.4453 57.4883 38.3203C57.6133 38.1875 57.6953 38.0078 57.7344 37.7812C57.7734 37.5469 57.793 37.25 57.793 36.8906V33.2109H52.1914V36.8906C52.1914 37.2578 52.2109 37.5586 52.25 37.793C52.2891 38.0195 52.3711 38.1992 52.4961 38.332C52.6211 38.457 52.7969 38.543 53.0234 38.5898C53.2578 38.6367 53.5664 38.6602 53.9492 38.6602V39H48.8164V38.6602C49.1992 38.6602 49.5039 38.6367 49.7305 38.5898C49.957 38.543 50.1289 38.457 50.2461 38.332C50.3633 38.1992 50.4375 38.0195 50.4688 37.793C50.5 37.5586 50.5156 37.2578 50.5156 36.8906V29.1328C50.5156 28.7656 50.4961 28.4688 50.457 28.2422C50.4258 28.0078 50.3516 27.8242 50.2344 27.6914C50.1172 27.5586 49.9453 27.4688 49.7188 27.4219C49.4922 27.3672 49.1914 27.3398 48.8164 27.3398V27.0234H53.9492V27.3398C53.5742 27.3398 53.2734 27.3672 53.0469 27.4219C52.8203 27.4688 52.6406 27.5586 52.5078 27.6914C52.3828 27.8242 52.2969 28.0078 52.25 28.2422C52.2109 28.4688 52.1914 28.7656 52.1914 29.1328V32.5664H57.793V29.1328C57.793 28.7656 57.7734 28.4688 57.7344 28.2422C57.6953 28.0078 57.6133 27.8242 57.4883 27.6914C57.3711 27.5586 57.1953 27.4688 56.9609 27.4219C56.7344 27.3672 56.4336 27.3398 56.0586 27.3398V27.0234H61.1914V27.3398C60.8398 27.3398 60.5508 27.3633 60.3242 27.4102C60.1055 27.4492 59.9336 27.5312 59.8086 27.6562C59.6914 27.7734 59.6094 27.9414 59.5625 28.1602C59.5156 28.3711 59.4922 28.6484 59.4922 28.9922V37.0078C59.4922 37.3672 59.5156 37.6562 59.5625 37.875C59.6094 38.0938 59.6914 38.2617 59.8086 38.3789C59.9336 38.4961 60.1055 38.5742 60.3242 38.6133C60.5508 38.6445 60.8398 38.6602 61.1914 38.6602V39H56.0586ZM73.918 32.9531C73.918 33.8047 73.7773 34.6133 73.4961 35.3789C73.2148 36.1445 72.8164 36.8203 72.3008 37.4062C71.793 37.9844 71.1758 38.4453 70.4492 38.7891C69.7305 39.125 68.9258 39.293 68.0352 39.293C67.1445 39.293 66.3359 39.125 65.6094 38.7891C64.8906 38.4531 64.2734 38 63.7578 37.4297C63.25 36.8516 62.8594 36.1797 62.5859 35.4141C62.3125 34.6484 62.1758 33.8359 62.1758 32.9766C62.1758 32.1094 62.3203 31.3008 62.6094 30.5508C62.9062 29.793 63.3203 29.1367 63.8516 28.582C64.3828 28.0195 65.0156 27.5781 65.75 27.2578C66.4844 26.9297 67.293 26.7656 68.1758 26.7656C69.043 26.7656 69.8281 26.9336 70.5312 27.2695C71.2344 27.5977 71.8359 28.0469 72.3359 28.6172C72.8438 29.1797 73.2344 29.8359 73.5078 30.5859C73.7812 31.3359 73.918 32.125 73.918 32.9531ZM71.9023 33.0703C71.9023 32.6328 71.8789 32.1875 71.832 31.7344C71.793 31.2812 71.7188 30.8438 71.6094 30.4219C71.5 30 71.3516 29.6055 71.1641 29.2383C70.9766 28.8711 70.7383 28.5508 70.4492 28.2773C70.1602 28.0039 69.8125 27.7891 69.4062 27.6328C69.0078 27.4688 68.5352 27.3867 67.9883 27.3867C67.4883 27.3867 67.0469 27.4688 66.6641 27.6328C66.2891 27.7891 65.9609 28.0039 65.6797 28.2773C65.3984 28.5508 65.1641 28.8711 64.9766 29.2383C64.7891 29.6055 64.6367 29.9961 64.5195 30.4102C64.4102 30.8164 64.332 31.2383 64.2852 31.6758C64.2383 32.1055 64.2148 32.5234 64.2148 32.9297C64.2148 33.3281 64.2383 33.7461 64.2852 34.1836C64.332 34.6211 64.4141 35.0508 64.5312 35.4727C64.6484 35.8945 64.8008 36.2969 64.9883 36.6797C65.1758 37.0625 65.4102 37.3984 65.6914 37.6875C65.9727 37.9766 66.3047 38.207 66.6875 38.3789C67.0703 38.5508 67.5117 38.6367 68.0117 38.6367C68.5352 38.6367 68.9922 38.5586 69.3828 38.4023C69.7812 38.2461 70.125 38.0352 70.4141 37.7695C70.7031 37.4961 70.9414 37.1797 71.1289 36.8203C71.3242 36.4531 71.4766 36.0664 71.5859 35.6602C71.7031 35.2461 71.7852 34.8203 71.832 34.3828C71.8789 33.9375 71.9023 33.5 71.9023 33.0703ZM84.8281 29.8359C84.7578 29.1562 84.5508 28.6445 84.207 28.3008C83.8633 27.9492 83.3359 27.7734 82.625 27.7734H80.9492V36.9141C80.9492 37.2812 80.9648 37.5781 80.9961 37.8047C81.0273 38.0312 81.1016 38.2109 81.2188 38.3438C81.3359 38.4688 81.5039 38.5547 81.7227 38.6016C81.9492 38.6406 82.25 38.6602 82.625 38.6602V39H77.5625V38.6602C77.9375 38.6602 78.2344 38.6367 78.4531 38.5898C78.6719 38.543 78.8398 38.457 78.957 38.332C79.0742 38.1992 79.1484 38.0195 79.1797 37.793C79.2188 37.5664 79.2383 37.2734 79.2383 36.9141V27.7734H77.7969C77.4219 27.7734 77.0938 27.8086 76.8125 27.8789C76.5312 27.9414 76.293 28.0508 76.0977 28.207C75.9102 28.3633 75.7617 28.5742 75.6523 28.8398C75.5508 29.1055 75.4844 29.4375 75.4531 29.8359H75.043L75.1602 27.0234H85.0977L85.2148 29.8359H84.8281ZM95.2227 39H86.0117V38.6602C86.3867 38.6602 86.6836 38.6367 86.9023 38.5898C87.1289 38.543 87.3008 38.457 87.418 38.332C87.5352 38.1992 87.6133 38.0195 87.6523 37.793C87.6914 37.5586 87.7109 37.2578 87.7109 36.8906V29.0859C87.7109 28.7109 87.6953 28.4102 87.6641 28.1836C87.6328 27.957 87.5586 27.7812 87.4414 27.6562C87.3242 27.5312 87.1523 27.4492 86.9258 27.4102C86.6992 27.3633 86.3945 27.3398 86.0117 27.3398V27.0234H95.2227L95.3633 29.6367H95.0352C94.9336 29.2539 94.8359 28.9375 94.7422 28.6875C94.6562 28.4297 94.5352 28.2266 94.3789 28.0781C94.2305 27.9297 94.0234 27.8242 93.7578 27.7617C93.5 27.6992 93.1484 27.668 92.7031 27.668H89.3984V32.4023H92.0352C92.4023 32.4023 92.6953 32.3789 92.9141 32.332C93.1406 32.2773 93.3203 32.1875 93.4531 32.0625C93.5938 31.9297 93.6953 31.7539 93.7578 31.5352C93.8281 31.3086 93.8867 31.0195 93.9336 30.668H94.2617V34.8516H93.9336C93.8867 34.5 93.8281 34.2109 93.7578 33.9844C93.6953 33.7578 93.5977 33.5781 93.4648 33.4453C93.332 33.3047 93.1523 33.207 92.9258 33.1523C92.707 33.0977 92.4102 33.0703 92.0352 33.0703H89.3984V37.0078C89.3984 37.2266 89.4023 37.4219 89.4102 37.5938C89.4258 37.7578 89.4648 37.8984 89.5273 38.0156C89.5898 38.125 89.6875 38.2109 89.8203 38.2734C89.9609 38.3281 90.1562 38.3555 90.4062 38.3555H92.4219C92.9453 38.3555 93.375 38.3125 93.7109 38.2266C94.0469 38.1406 94.3359 38.0039 94.5781 37.8164C94.8281 37.6289 95.0508 37.3867 95.2461 37.0898C95.4414 36.7852 95.6602 36.4219 95.9023 36H96.2773L95.2227 39ZM106.309 39H97.0039V38.6602C97.2852 38.6602 97.5352 38.6445 97.7539 38.6133C97.9727 38.5742 98.1523 38.5039 98.293 38.4023C98.4414 38.293 98.5547 38.1406 98.6328 37.9453C98.7109 37.75 98.75 37.4922 98.75 37.1719V28.8516C98.75 28.5391 98.7109 28.2852 98.6328 28.0898C98.5547 27.8945 98.4414 27.7461 98.293 27.6445C98.1523 27.5352 97.9727 27.4609 97.7539 27.4219C97.5352 27.3828 97.2852 27.3633 97.0039 27.3633V27.0234H102.207V27.3633C101.918 27.3633 101.664 27.3828 101.445 27.4219C101.227 27.4609 101.043 27.5352 100.895 27.6445C100.746 27.7461 100.633 27.8945 100.555 28.0898C100.477 28.2852 100.438 28.5391 100.438 28.8516V36.7383C100.438 37.0352 100.461 37.2812 100.508 37.4766C100.555 37.6641 100.633 37.8164 100.742 37.9336C100.859 38.043 101.016 38.1211 101.211 38.168C101.406 38.207 101.652 38.2266 101.949 38.2266H103.145C103.723 38.2266 104.207 38.1953 104.598 38.1328C104.988 38.0625 105.324 37.9375 105.605 37.7578C105.895 37.5703 106.148 37.3125 106.367 36.9844C106.586 36.6484 106.809 36.2148 107.035 35.6836L107.34 35.7305L106.309 39Z" fill="#FFDE9D"/>
</svg>
