<svg width="46" height="49" viewBox="0 0 46 49" fill="none" xmlns="http://www.w3.org/2000/svg">
<path d="M22.5959 47.3645C24.9937 40.6175 32.6667 25.7741 44.1761 20.3765C44.2627 18.788 43.924 16.5529 42.9863 14.1773M22.5959 1.63477C22.5959 2.2345 22.6432 32.2393 22.6669 47.1667M22.5959 1.63477C26.1112 1.63477 29.1062 2.1955 31.6437 3.1341M22.5959 1.63477C19.4969 1.94481 16.8162 2.54129 14.5033 3.3444M22.6669 47.1667C22.9666 41.6691 9.10823 22.6255 1.01563 20.3765C0.924848 18.7113 1.21903 16.5005 2.17305 14.1773M22.6669 47.1667C23.9481 40.601 29.8056 24.8112 42.9863 14.1773M22.6669 47.1667C23.2427 40.2357 27.2716 22.6255 38.7811 7.63211M22.6669 47.1667C23.28 38.4865 25.9337 17.5277 31.6437 3.1341M22.6669 47.1667C22.0438 38.1269 19.5387 16.7068 14.5033 3.3444M22.6669 47.1667C22.0733 40.2357 18.0899 22.6255 6.90464 7.63211M22.6669 47.1667C21.017 39.6014 14.6084 22.4122 2.17305 14.1773M42.9863 14.1773C41.3465 10.0229 37.875 5.43908 31.6437 3.1341M14.5033 3.3444C11.3165 4.45093 8.82775 5.94973 6.90464 7.63211M6.90464 7.63211C4.5771 9.66829 3.07813 11.9734 2.17305 14.1773" stroke="#FFDE9D" stroke-width="1.90541" stroke-linecap="round"/>
</svg>
